<svg width="20" height="20" viewBox="0 0 20 20" fill="none" xmlns="http://www.w3.org/2000/svg">
<path fill-rule="evenodd" clip-rule="evenodd" d="M10.0001 17C9.8012 17 9.61044 16.921 9.46979 16.7803C9.32913 16.6397 9.25012 16.4489 9.25012 16.25V5.61201L5.29012 9.77001C5.1507 9.9064 4.96363 9.98312 4.76859 9.9839C4.57355 9.98467 4.38589 9.90943 4.24539 9.77414C4.1049 9.63885 4.02264 9.45416 4.01605 9.25923C4.00947 9.0643 4.07908 8.87447 4.21012 8.73001L9.46012 3.23001C9.53008 3.15742 9.61396 3.09968 9.70674 3.06025C9.79952 3.02081 9.8993 3.00049 10.0001 3.00049C10.1009 3.00049 10.2007 3.02081 10.2935 3.06025C10.3863 3.09968 10.4702 3.15742 10.5401 3.23001L15.7901 8.73001C15.8619 8.8002 15.9188 8.88408 15.9575 8.97668C15.9963 9.06928 16.016 9.16871 16.0156 9.26908C16.0152 9.36945 15.9947 9.46873 15.9552 9.56102C15.9157 9.6533 15.8582 9.73673 15.7859 9.80635C15.7136 9.87598 15.628 9.93038 15.5343 9.96634C15.4406 10.0023 15.3406 10.0191 15.2403 10.0157C15.14 10.0123 15.0414 9.98881 14.9503 9.9466C14.8592 9.9044 14.7776 9.84435 14.7101 9.77001L10.7501 5.61201V16.25C10.7501 16.4489 10.6711 16.6397 10.5304 16.7803C10.3898 16.921 10.199 17 10.0001 17Z" fill="#2F2F2F"/>
</svg>
