<svg width="28" height="28" viewBox="0 0 28 28" fill="none" xmlns="http://www.w3.org/2000/svg">
<path d="M20.48 5.80399C20.4341 5.57794 20.3114 5.3747 20.1328 5.22872C19.9542 5.08274 19.7307 5.00299 19.5 5.00299C19.2693 5.00299 19.0457 5.08274 18.8671 5.22872C18.6885 5.3747 18.5659 5.57794 18.52 5.80399L18.28 6.99599C18.2414 7.18962 18.1464 7.36749 18.0068 7.50719C17.8673 7.64688 17.6896 7.74216 17.496 7.78099L16.304 8.01899C16.0768 8.06391 15.8723 8.18627 15.7253 8.36517C15.5783 8.54408 15.498 8.76845 15.498 8.99999C15.498 9.23154 15.5783 9.45591 15.7253 9.63481C15.8723 9.81372 16.0768 9.93607 16.304 9.98099L17.496 10.219C17.6898 10.2577 17.8677 10.3528 18.0074 10.4926C18.1471 10.6323 18.2423 10.8102 18.281 11.004L18.519 12.196C18.5639 12.4231 18.6863 12.6277 18.8652 12.7746C19.0441 12.9216 19.2684 13.002 19.5 13.002C19.7315 13.002 19.9559 12.9216 20.1348 12.7746C20.3137 12.6277 20.4361 12.4231 20.481 12.196L20.719 11.004C20.7577 10.8102 20.8528 10.6323 20.9926 10.4926C21.1323 10.3528 21.3102 10.2577 21.504 10.219L22.696 9.98099C22.9231 9.93607 23.1277 9.81372 23.2746 9.63481C23.4216 9.45591 23.502 9.23154 23.502 8.99999C23.502 8.76845 23.4216 8.54408 23.2746 8.36517C23.1277 8.18627 22.9231 8.06391 22.696 8.01899L21.504 7.78099C21.3102 7.74233 21.1323 7.64714 20.9926 7.50743C20.8528 7.36772 20.7577 7.18975 20.719 6.99599L20.481 5.80399H20.48ZM11.449 9.68399C11.3828 9.48465 11.2555 9.31123 11.0851 9.18832C10.9148 9.06541 10.71 8.99927 10.5 8.99927C10.2899 8.99927 10.0852 9.06541 9.91487 9.18832C9.74453 9.31123 9.61722 9.48465 9.55099 9.68399L8.86799 11.735C8.81892 11.8824 8.73616 12.0164 8.62628 12.1263C8.5164 12.2362 8.38243 12.3189 8.23499 12.368L6.18399 13.051C5.98465 13.1172 5.81122 13.2445 5.68832 13.4149C5.56541 13.5852 5.49927 13.7899 5.49927 14C5.49927 14.21 5.56541 14.4148 5.68832 14.5851C5.81122 14.7555 5.98465 14.8828 6.18399 14.949L8.23499 15.633C8.38232 15.682 8.51622 15.7646 8.62609 15.8743C8.73596 15.984 8.81878 16.1177 8.86799 16.265L9.55099 18.316C9.61722 18.5153 9.74453 18.6888 9.91487 18.8117C10.0852 18.9346 10.2899 19.0007 10.5 19.0007C10.71 19.0007 10.9148 18.9346 11.0851 18.8117C11.2555 18.6888 11.3828 18.5153 11.449 18.316L12.132 16.265C12.1811 16.1176 12.2638 15.9836 12.3737 15.8737C12.4836 15.7638 12.6176 15.6811 12.765 15.632L14.816 14.949C15.0153 14.8828 15.1888 14.7555 15.3117 14.5851C15.4346 14.4148 15.5007 14.21 15.5007 14C15.5007 13.7899 15.4346 13.5852 15.3117 13.4149C15.1888 13.2445 15.0153 13.1172 14.816 13.051L12.765 12.368C12.6176 12.3189 12.4836 12.2362 12.3737 12.1263C12.2638 12.0164 12.1811 11.8824 12.132 11.735L11.449 9.68399ZM18.449 17.684C18.3828 17.4847 18.2555 17.3112 18.0851 17.1883C17.9148 17.0654 17.71 16.9993 17.5 16.9993C17.2899 16.9993 17.0852 17.0654 16.9149 17.1883C16.7445 17.3112 16.6172 17.4847 16.551 17.684L16.367 18.235C16.318 18.3823 16.2354 18.5162 16.1257 18.6261C16.016 18.736 15.8822 18.8188 15.735 18.868L15.184 19.051C14.9847 19.1172 14.8112 19.2445 14.6883 19.4149C14.5654 19.5852 14.4993 19.7899 14.4993 20C14.4993 20.21 14.5654 20.4148 14.6883 20.5851C14.8112 20.7555 14.9847 20.8828 15.184 20.949L15.735 21.132C15.8824 21.1811 16.0164 21.2638 16.1263 21.3737C16.2362 21.4836 16.3189 21.6176 16.368 21.765L16.551 22.316C16.6172 22.5153 16.7445 22.6888 16.9149 22.8117C17.0852 22.9346 17.2899 23.0007 17.5 23.0007C17.71 23.0007 17.9148 22.9346 18.0851 22.8117C18.2555 22.6888 18.3828 22.5153 18.449 22.316L18.633 21.765C18.682 21.6177 18.7646 21.4838 18.8743 21.3739C18.984 21.264 19.1177 21.1812 19.265 21.132L19.816 20.949C20.0153 20.8828 20.1888 20.7555 20.3117 20.5851C20.4346 20.4148 20.5007 20.21 20.5007 20C20.5007 19.7899 20.4346 19.5852 20.3117 19.4149C20.1888 19.2445 20.0153 19.1172 19.816 19.051L19.265 18.867C19.1177 18.818 18.9838 18.7354 18.8739 18.6257C18.764 18.516 18.6812 18.3822 18.632 18.235L18.449 17.684Z" fill="#B4B4B4"/>
</svg>
